<?xml version="1.0" standalone="no"?>
<!DOCTYPE svg PUBLIC "-//W3C//DTD SVG 20010904//EN"
 "http://www.w3.org/TR/2001/REC-SVG-20010904/DTD/svg10.dtd">
<svg version="1.0" xmlns="http://www.w3.org/2000/svg"
 width="225.000000pt" height="225.000000pt" viewBox="0 0 225.000000 225.000000"
 preserveAspectRatio="xMidYMid meet">
<metadata>
Created by potrace 1.14, written by Peter Selinger 2001-2017
</metadata>
<g transform="translate(0.000000,225.000000) scale(0.100000,-0.100000)"
fill="#000000" stroke="none">
<path d="M344 2191 c31 -34 8 -45 -31 -15 -19 14 -37 23 -41 19 -4 -4 1 -12
11 -19 21 -16 22 -26 1 -26 -9 0 -25 9 -35 21 -17 20 -19 20 -41 4 -15 -11
-17 -15 -5 -12 9 4 17 2 17 -3 0 -6 -11 -10 -24 -10 -24 0 -46 -30 -23 -30 7
-1 2 -9 -10 -19 -13 -11 -31 -17 -42 -14 -10 3 -22 -1 -27 -8 -5 -9 -2 -11 9
-6 13 5 17 1 17 -18 0 -25 13 -31 43 -19 9 3 12 14 9 30 -3 19 0 24 17 24 27
0 40 -29 20 -44 -34 -26 -10 -55 26 -32 24 16 26 16 32 0 4 -11 -1 -23 -15
-35 -12 -9 -22 -27 -22 -38 0 -14 -6 -21 -19 -21 -11 0 -23 -4 -26 -10 -10
-16 -41 -11 -60 10 -22 24 -41 26 -49 4 -7 -18 -26 -9 -26 12 0 8 4 12 10 9 5
-3 22 5 37 19 27 25 27 26 5 26 -25 0 -30 18 -7 26 12 5 23 44 11 44 -20 0
-66 -25 -66 -36 0 -8 -4 -14 -10 -14 -5 0 -10 -7 -10 -15 0 -8 -4 -15 -10 -15
-15 0 -14 -1681 2 -1717 39 -90 115 -174 213 -234 l40 -24 850 0 850 0 56 27
c70 35 138 103 181 182 l33 61 3 505 c2 278 4 577 5 665 1 88 1 174 -1 190 -1
17 1 71 4 121 5 75 3 96 -10 116 -9 14 -19 36 -21 49 -12 64 -19 85 -32 106
l-15 23 -17 -22 c-17 -20 -16 -22 6 -46 23 -25 28 -54 8 -53 -5 1 -10 5 -10 9
0 15 -33 42 -52 42 -14 -1 -11 -7 15 -29 17 -15 32 -36 32 -46 0 -15 -4 -13
-20 8 l-21 26 -29 -32 c-28 -31 -29 -31 -49 -13 -18 17 -21 17 -36 2 -27 -27
-38 -19 -30 20 l6 36 -55 -4 c-53 -3 -55 -2 -60 26 -3 15 -3 32 0 37 3 5 2 18
-1 30 -6 19 -8 19 -19 3 -12 -15 -16 -16 -44 -3 -38 16 -44 49 -9 49 17 0 19
2 8 9 -12 8 -13 12 -1 25 24 29 6 25 -21 -5 -15 -16 -24 -29 -20 -30 3 0 -3
-4 -14 -8 -11 -5 -105 -9 -208 -10 -232 -2 -349 16 -384 57 l-23 27 -19 -23
c-11 -12 -39 -26 -63 -32 -24 -5 -61 -13 -83 -19 -59 -16 -131 -14 -149 4 -8
8 -17 15 -20 15 -3 0 -6 -7 -6 -15 0 -12 -14 -15 -70 -15 -38 0 -70 4 -70 9 0
4 18 6 39 4 22 -3 42 0 46 6 4 7 -4 11 -22 11 -15 0 -38 3 -51 6 -13 4 -22 3
-21 -2 3 -19 -1 -34 -11 -34 -5 0 -10 5 -10 10 0 6 -8 19 -17 29 -16 17 -24
18 -77 8 -53 -10 -60 -9 -72 8 -21 28 -17 45 11 45 14 0 25 4 25 10 0 14 -68
24 -83 11 -10 -8 -19 -7 -33 4 -28 21 -40 18 -20 -4z m-97 -66 c-4 -8 -12 -15
-19 -14 -10 0 -10 2 0 6 6 2 12 12 12 21 0 8 3 13 6 9 4 -3 4 -13 1 -22z m77
10 c3 -8 1 -15 -4 -15 -6 0 -10 7 -10 15 0 8 2 15 4 15 2 0 6 -7 10 -15z m807
-58 c-13 -13 -31 0 -24 19 4 11 8 12 20 3 9 -8 10 -16 4 -22z m-57 -22 c3 -9
0 -15 -9 -15 -9 0 -23 -4 -33 -9 -18 -10 -297 -74 -322 -74 -8 0 -20 -4 -26
-9 -14 -11 -44 0 -44 16 0 12 124 49 225 67 28 6 59 14 70 19 20 9 57 16 106
19 16 0 29 -5 33 -14z m181 -5 c6 -4 27 -10 48 -14 21 -4 71 -18 113 -32 41
-13 94 -24 117 -24 59 0 73 -12 36 -29 -23 -10 -34 -10 -42 -2 -6 6 -26 11
-44 11 -18 0 -33 5 -33 11 0 5 -4 7 -10 4 -9 -6 -35 0 -145 31 -27 7 -77 20
-110 28 -33 8 -50 15 -38 15 12 1 25 6 28 12 7 10 61 3 80 -11z m-640 -70 c10
-11 15 -23 11 -28 -4 -4 -14 1 -21 12 -13 17 -15 17 -30 2 -24 -24 -28 -19 -8
9 22 30 25 30 48 5z m1024 -27 c-1 -34 -2 -35 -9 -13 -11 36 -11 50 0 50 6 0
10 -17 9 -37z m-566 -83 c-2 -47 -33 -151 -51 -172 -13 -16 -13 -18 0 -18 19
0 79 -50 72 -61 -3 -5 -51 -9 -107 -9 l-102 1 25 21 25 21 -25 -7 c-61 -19
-81 -19 -95 0 -8 11 -13 24 -10 30 2 7 -6 22 -17 34 -17 19 -27 21 -62 16 -39
-7 -76 -30 -76 -48 0 -5 -16 -29 -36 -52 l-36 -43 -34 33 c-38 39 -70 47 -34
9 28 -30 24 -40 -6 -16 -24 20 -38 71 -19 71 7 0 32 16 56 36 23 19 54 41 69
49 19 10 29 27 40 67 l13 53 14 -32 c16 -39 19 -40 47 -10 18 20 41 26 161 41
77 10 145 19 150 21 28 10 40 -2 38 -35z m182 25 c62 -7 163 -22 202 -30 12
-3 28 -17 36 -30 l13 -25 21 20 c30 27 33 26 33 -18 0 -35 3 -40 45 -60 24
-12 51 -33 60 -46 15 -22 49 -42 65 -39 3 1 5 -10 4 -24 0 -15 -13 -34 -33
-50 -32 -25 -32 -25 -38 -4 -3 11 -13 21 -22 21 -13 0 -13 -2 -2 -9 10 -6 10
-10 1 -16 -7 -4 -24 5 -41 21 -38 36 -46 26 -19 -27 19 -35 20 -43 8 -50 -8
-5 -33 -25 -54 -46 -22 -21 -66 -60 -99 -88 -66 -57 -97 -89 -96 -102 0 -4
-23 -32 -51 -60 -35 -36 -58 -51 -69 -48 -10 3 -21 0 -25 -6 -5 -8 -3 -9 6 -4
8 5 11 3 8 -5 -2 -8 -13 -14 -24 -15 -18 -1 -89 -50 -119 -81 -5 -5 -48 -44
-95 -85 -47 -40 -89 -79 -95 -85 -5 -6 -48 -44 -95 -84 -267 -231 -315 -278
-363 -361 -22 -37 -70 -97 -107 -134 l-68 -68 -34 21 c-32 21 -24 31 11 13 15
-9 22 2 51 87 18 53 38 105 44 117 40 74 112 161 188 230 49 44 104 94 121
110 18 17 78 70 135 119 56 48 102 92 102 96 0 5 -34 39 -75 77 -41 37 -77 73
-79 80 -11 26 13 21 50 -12 46 -41 60 -27 15 16 -44 41 -39 44 14 7 47 -33 53
-43 33 -51 -7 -2 -10 -8 -6 -12 9 -9 38 19 38 37 0 7 -34 42 -75 78 -106 92
-205 188 -205 198 0 4 14 21 31 38 19 18 28 22 24 11 -4 -10 -3 -17 4 -17 6 0
11 -5 11 -11 0 -5 -5 -7 -10 -4 -15 9 -12 -4 5 -21 13 -14 15 -14 15 0 0 24
11 20 59 -24 52 -48 49 -65 -3 -19 -20 17 -39 30 -41 27 -6 -6 32 -45 100
-103 33 -27 80 -68 105 -91 25 -22 58 -52 75 -67 16 -15 33 -27 37 -27 19 0 5
26 -32 57 -22 19 -38 39 -34 44 3 5 -2 9 -10 9 -9 0 -16 5 -16 10 0 6 -3 9 -8
8 -4 -2 -33 17 -65 42 -31 25 -53 46 -48 48 5 2 19 -5 30 -15 41 -37 52 -45
59 -38 4 4 0 12 -10 19 -24 17 -122 103 -186 162 l-55 50 27 42 c14 23 29 42
32 42 12 0 91 -60 137 -104 46 -44 77 -58 77 -35 0 5 5 7 10 4 6 -3 10 -1 10
5 0 11 62 -18 95 -45 20 -16 20 -16 -2 -10 -18 5 -22 3 -17 -9 3 -8 11 -13 17
-10 7 2 20 -20 31 -56 20 -63 47 -100 71 -100 11 0 15 14 15 58 0 31 5 64 10
72 7 12 10 8 10 -15 1 -71 25 -65 56 15 19 51 62 96 121 130 52 29 66 75 32
103 -21 17 -49 23 -49 10 0 -3 7 -15 17 -25 17 -19 10 -39 -8 -21 -7 7 -24 7
-52 1 -44 -10 -116 -13 -124 -4 -2 2 3 16 13 31 17 25 17 26 38 7 23 -21 56
-18 56 4 0 8 -7 17 -15 21 -22 8 -51 69 -71 147 -20 79 -15 100 23 92 16 -3
55 -8 88 -11z m-135 -210 c-8 -53 -10 -52 -15 5 -8 82 -7 179 1 191 12 19 23
-132 14 -196z m-980 165 c0 -5 -4 -10 -9 -10 -6 0 -13 5 -16 10 -3 6 1 10 9
10 9 0 16 -4 16 -10z m1947 -17 c-9 -9 -19 -14 -23 -11 -10 10 6 28 24 28 15
0 15 -1 -1 -17z m-150 -19 c-9 -9 -28 6 -21 18 4 6 10 6 17 -1 6 -6 8 -13 4
-17z m-1592 3 c10 -8 15 -19 11 -26 -9 -14 -22 -7 -36 20 -12 22 -2 25 25 6z
m1525 -37 c0 -5 -5 -10 -11 -10 -5 0 -7 5 -4 10 3 6 8 10 11 10 2 0 4 -4 4
-10z m-1438 -37 c30 -29 38 -56 13 -47 -8 4 -15 12 -15 20 0 7 -9 18 -20 24
-11 6 -20 15 -20 20 0 16 13 11 42 -17z m1345 -49 c-3 -3 -12 -4 -19 -1 -8 3
-5 6 6 6 11 1 17 -2 13 -5z m-137 -239 c0 -4 -20 -25 -44 -47 -25 -21 -48 -47
-51 -58 -3 -10 -14 -22 -23 -25 -17 -5 -31 -17 -157 -130 -38 -34 -122 -109
-185 -165 -63 -57 -169 -153 -235 -215 -66 -61 -142 -131 -169 -156 -27 -24
-66 -60 -85 -79 -88 -86 -217 -179 -273 -195 -27 -8 33 51 282 278 91 83 210
191 265 241 55 50 129 118 165 150 36 33 85 78 110 101 25 23 83 74 130 115
110 94 210 192 210 204 0 5 -22 -12 -50 -38 -43 -40 -70 -56 -70 -42 0 3 30
29 66 59 l67 54 23 -22 c13 -12 24 -26 24 -30z m-1200 15 c0 -5 -4 -10 -9 -10
-6 0 -13 5 -16 10 -3 6 1 10 9 10 9 0 16 -4 16 -10z m1350 -10 c0 -5 -4 -10
-10 -10 -5 0 -10 5 -10 10 0 6 5 10 10 10 6 0 10 -4 10 -10z m-1504 -67 c24
-25 44 -53 44 -62 0 -15 -100 86 -100 102 0 15 13 6 56 -40z m270 -24 c65 -70
108 -109 121 -109 7 0 13 -7 13 -16 0 -9 -4 -14 -9 -12 -18 6 -181 152 -197
176 l-15 23 29 -15 c16 -8 43 -29 58 -47z m1434 58 c0 -1 -25 -27 -55 -57 -30
-30 -55 -49 -55 -43 0 6 16 26 35 45 20 18 33 38 30 45 -3 8 5 13 20 13 14 0
25 -1 25 -3z m-1605 -27 c-3 -5 -11 -10 -16 -10 -6 0 -7 5 -4 10 3 6 11 10 16
10 6 0 7 -4 4 -10z m1335 -9 c0 -14 -201 -183 -209 -175 -3 3 3 11 14 18 10 6
53 46 95 88 69 71 100 92 100 69z m-318 -61 c-48 -44 -54 -47 -46 -25 4 8 9
15 13 15 3 0 19 11 35 25 47 40 45 28 -2 -15z m98 -128 c0 -5 -30 -35 -66 -68
-36 -32 -119 -111 -183 -174 -134 -130 -241 -225 -241 -213 0 5 8 16 18 25 9
9 25 28 35 42 10 14 24 26 32 26 13 0 145 126 145 139 0 3 24 26 52 51 29 25
69 62 90 83 20 20 41 37 46 37 4 0 18 14 30 30 22 29 42 39 42 22z m-375 -121
c-3 -6 -11 -11 -17 -11 -6 0 -6 6 2 15 14 17 26 13 15 -4z m245 -81 c0 -5 -5
-10 -11 -10 -5 0 -7 5 -4 10 3 6 8 10 11 10 2 0 4 -4 4 -10z m-783 -6 c-3 -3
-12 -4 -19 -1 -8 3 -5 6 6 6 11 1 17 -2 13 -5z m890 -71 c23 -18 55 -46 70
-61 15 -15 72 -68 127 -117 90 -82 151 -158 215 -267 28 -48 73 -188 61 -188
-25 0 -144 141 -184 218 -16 30 -72 91 -126 137 -115 96 -300 269 -300 279 0
6 9 18 20 26 11 8 20 21 20 28 0 17 29 0 97 -55z m83 20 c0 -22 -17 -50 -25
-42 -5 6 14 59 22 59 1 0 3 -8 3 -17z m-610 -18 c-7 -8 -17 -15 -22 -15 -6 0
-5 7 2 15 7 8 17 15 22 15 6 0 5 -7 -2 -15z m422 -126 c232 -204 416 -381 402
-386 -18 -6 -122 58 -185 114 -35 31 -112 101 -171 155 -59 55 -115 107 -125
116 -39 36 -46 51 -33 67 7 8 14 15 16 15 2 0 46 -37 96 -81z m19 34 l34 -37
-37 30 c-20 16 -37 32 -37 37 -2 12 4 8 40 -30z m-531 23 c0 -2 -8 -10 -17
-17 -16 -13 -17 -12 -4 4 13 16 21 21 21 13z m-45 -46 c-3 -5 -12 -10 -18 -10
-7 0 -6 4 3 10 19 12 23 12 15 0z m570 -215 c118 -106 128 -116 120 -123 -4
-4 -22 10 -41 31 -19 20 -38 37 -42 37 -4 0 -53 43 -107 96 -109 104 -62 77
70 -41z m-490 28 c-27 -25 -77 -68 -110 -96 -33 -27 -63 -55 -67 -61 -4 -6
-10 -7 -14 -3 -7 7 50 67 63 67 3 0 18 12 32 28 55 56 134 122 140 116 3 -3
-16 -26 -44 -51z m350 -218 c-10 -19 -20 -33 -23 -30 -4 3 2 21 13 40 24 46
32 37 10 -10z m575 -25 c0 -5 -2 -10 -4 -10 -3 0 -8 5 -11 10 -3 6 -1 10 4 10
6 0 11 -4 11 -10z m-674 -42 c-18 -26 -22 -17 -5 14 6 11 13 17 16 15 3 -3 -2
-16 -11 -29z m16 -68 c-11 -20 -20 -26 -27 -19 -7 7 -2 17 14 30 31 26 33 24
13 -11z m191 -117 c-7 -2 -21 -2 -30 0 -10 3 -4 5 12 5 17 0 24 -2 18 -5z"/>
<path d="M580 1635 c-8 -9 -8 -15 -2 -15 12 0 26 19 19 26 -2 2 -10 -2 -17
-11z"/>
<path d="M1395 1701 c-2 -2 0 -11 5 -21 8 -14 18 -17 55 -13 57 7 61 -12 5
-22 -50 -8 -58 -21 -32 -47 l20 -21 40 32 c22 17 49 31 61 31 21 0 21 1 6 30
-9 17 -21 31 -28 32 -27 3 -128 3 -132 -1z"/>
<path d="M1260 1660 c0 -5 5 -10 10 -10 6 0 10 5 10 10 0 6 -4 10 -10 10 -5 0
-10 -4 -10 -10z"/>
<path d="M1690 1620 c-9 -16 -8 -18 5 -14 8 4 15 12 15 20 0 20 -7 17 -20 -6z"/>
<path d="M920 1485 c0 -2 10 -10 23 -16 20 -11 21 -11 8 4 -13 16 -31 23 -31
12z"/>
<path d="M1295 1270 c-10 -11 -13 -20 -8 -20 13 0 38 29 31 35 -3 3 -13 -4
-23 -15z"/>
<path d="M1831 2121 c-7 -5 -10 -14 -7 -20 4 -6 1 -11 -6 -12 -7 0 -4 -4 7 -8
22 -9 35 3 35 32 0 19 -8 21 -29 8z"/>
<path d="M1945 2123 c-32 -8 -45 -23 -45 -54 0 -24 7 -31 37 -44 21 -9 47 -14
58 -12 19 4 19 4 -1 6 -11 0 -29 10 -38 20 -15 16 -15 22 -4 40 27 43 73 36
64 -10 -3 -16 -1 -31 5 -35 15 -9 20 0 24 40 5 50 -29 66 -100 49z"/>
<path d="M120 2110 c0 -5 5 -10 11 -10 5 0 7 5 4 10 -3 6 -8 10 -11 10 -2 0
-4 -4 -4 -10z"/>
<path d="M1870 2014 c0 -8 5 -12 10 -9 6 3 10 10 10 16 0 5 -4 9 -10 9 -5 0
-10 -7 -10 -16z"/>
<path d="M1870 1979 c0 -5 9 -9 20 -9 11 0 20 2 20 4 0 2 -9 6 -20 9 -11 3
-20 1 -20 -4z"/>
</g>
</svg>
